# xmcd
#
# Track frame offsets:
#	150
#	11692
#	28783
#	47883
#	51502
#	73235
#	90744
#	104832
#	115123
#	132042
#	151793
#	156126
#	177150
#
# Disc length: 2680 seconds
#
# Revision: 0
# Processed by: cddbd v1.5.1PL0 Copyright (c) Steve Scherf et al.
# Submitted via: audiograbber 1.83.01
#
DISCID=b00a760d
DTITLE=Pennybridge Kingz - No Holds Barred Mixtape
DYEAR=2005
DGENRE=Hip-Hop
TTITLE0=No Holds Barred
TTITLE1=Some Of Them (featuring P.S. aka The Marginal Error)
TTITLE2=They Phony
TTITLE3=Evil (skit)
TTITLE4=Rise From The Dead
TTITLE5=Bad Blood
TTITLE6=Dressed To Kill (Nuccafucka)
TTITLE7=The Unreachable Man (skit)
TTITLE8=Desert Kingz (featuring ADL)
TTITLE9=Ares
TTITLE10=Don't Sit-In, Stand Up (skit)
TTITLE11=Thankful
TTITLE12=Bonafide
EXTD=
EXTT0=
EXTT1=
EXTT2=
EXTT3=
EXTT4=
EXTT5=
EXTT6=
EXTT7=
EXTT8=
EXTT9=
EXTT10=
EXTT11=
EXTT12=
PLAYORDER=
